<svg viewBox="0 0 24 24" xmlns="http://www.w3.org/2000/svg"><path d="M1.5 21h21v0c.82 0 1.5-.68 1.5-1.5v-15 0c0-.83-.68-1.5-1.5-1.5h-21v0C.67 3 0 3.67 0 4.5v15 0c0 .82.67 1.5 1.5 1.5Zm1.14-5.08l2.57-4.285v0c.42-.72 1.34-.95 2.05-.52 .21.12.38.3.51.51l1.66 2.77v0c.04.07.11.11.2.12v0c.08 0 .15-.03.21-.09l.99-1.19v0c.57-.64 1.54-.69 2.18-.12 .04.03.07.07.11.11l1.19 1.43 4.36-7.641v0c.26-.49.86-.67 1.35-.41 .48.26.66.86.4 1.35 -.01.01-.02.02-.03.04l-4.724 8.27v0c-.42.71-1.33.96-2.05.55 -.16-.09-.3-.21-.41-.35l-1.08-1.3v0c-.1-.11-.25-.12-.36-.03 -.02 0-.02.01-.03.02l-1.09 1.3h-.001c-.54.63-1.48.72-2.12.19 -.13-.11-.24-.24-.33-.39l-1.57-2.61v0c-.08-.12-.23-.16-.35-.09 -.04.02-.07.05-.09.08l-1.93 3.21H4.25c-.28.48-.89.65-1.37.38 -.49-.28-.66-.89-.39-1.37 0-.02.01-.04.02-.05Z" fill="currentColor" fill-rule="nonzero"/></svg>