<?xml version="1.0" encoding="UTF-8"?>
<svg width="24px" height="18px" viewBox="0 0 24 18" version="1.1" xmlns="http://www.w3.org/2000/svg" xmlns:xlink="http://www.w3.org/1999/xlink">
    <title>icon-action</title>
    <g id="card-type-icons" stroke="none" stroke-width="1" fill="none" fill-rule="evenodd">
        <g id="Artboard" transform="translate(-160.000000, -63.000000)" fill="currentColor" fill-rule="nonzero">
            <path d="M182.5,63 C183.32,63 184,63.67 184,64.5 L184,64.5 L184,79.5 C184,80.32 183.32,81 182.5,81 L182.5,81 L161.5,81 C160.67,81 160,80.32 160,79.5 L160,79.5 L160,64.5 C160,63.67 160.67,63 161.5,63 L161.5,63 Z M171.607999,71.1616838 L171.518936,71.1645647 C171.430909,71.1769243 171.347505,71.2173388 171.282386,71.2823787 C171.173855,71.3907786 171.133675,71.5500448 171.177797,71.6969508 L171.177797,71.6969508 L173.034922,77.8880943 L173.06681,77.9697325 C173.143019,78.1259629 173.291313,78.2377256 173.466553,78.2655462 C173.670999,78.2980035 173.875964,78.2104664 173.993875,78.0403356 L173.993875,78.0403356 L174.95519,76.652462 L174.984536,76.6210384 C175.006831,76.6032561 175.034063,76.5921145 175.063077,76.5894565 C175.106596,76.5854693 175.149644,76.6009805 175.180617,76.6318091 L175.180617,76.6318091 L177.390637,78.8422574 L177.46525,78.9045755 C177.675211,79.0499843 177.96547,79.0292116 178.152489,78.8422574 L178.152489,78.8422574 L178.841755,78.1530413 L178.897112,78.0884152 C178.963555,77.9971029 179,77.8865071 179,77.7721431 C179,77.6291883 178.943055,77.4921209 178.841755,77.391245 L178.841755,77.391245 L176.632326,75.1807967 L176.606507,75.1463545 C176.592915,75.1212482 176.586777,75.0924311 176.589363,75.0633745 C176.593243,75.0197896 176.616348,74.9802016 176.65239,74.9553853 L176.65239,74.9553853 L178.040365,73.9947313 L178.108128,73.9391657 C178.233113,73.8183958 178.293533,73.642854 178.265821,73.4676431 C178.23349,73.2632305 178.086916,73.0954047 177.888703,73.0358475 L177.888703,73.0358475 L171.697107,71.1782684 L171.607999,71.1616838 Z M171.538239,65.0001963 L171.307034,65.002467 C167.882427,65.1380124 165.137369,67.8831269 165.002135,71.3074964 C164.915754,74.7076685 167.460814,77.6016274 170.844376,77.950643 L170.844376,77.950643 L170.903389,77.950643 L170.999496,77.9477056 C171.282178,77.9159927 171.508354,77.683369 171.52302,77.3900649 C171.539316,77.0641714 171.288318,76.7867731 170.961811,76.7763793 L170.961811,76.7763793 L170.738859,76.7487036 C168.082175,76.3626182 166.112626,74.0475565 166.181795,71.340541 C166.292025,68.5388313 168.538167,66.2928534 171.340081,66.1826316 C174.122599,66.111258 176.491119,68.1937167 176.776317,70.9622983 C176.808908,71.2865623 177.098216,71.5230113 177.422504,71.4904219 C177.746792,71.4578326 177.983258,71.1685458 177.950666,70.8442818 C177.607911,67.4577293 174.709863,64.9094449 171.307034,65.002467 Z M175.499285,70.4896424 C175.014395,68.5426847 173.199227,67.2266654 171.197861,67.3710574 C169.16828,67.5426922 167.555024,69.1468722 167.372078,71.175318 C167.224755,73.150276 168.496474,74.9531066 170.406503,75.477018 C170.716872,75.5519299 171.030538,75.3664251 171.114385,75.058371 C171.198232,74.750317 171.021846,74.4314485 170.716319,74.3387492 C169.352007,73.962752 168.444698,72.6737204 168.551149,71.2626502 C168.682083,69.8161211 169.832029,68.6719797 171.279298,68.5482716 C172.7093,68.4449453 174.00662,69.3844439 174.354442,70.7752422 C174.439227,71.0843991 174.755345,71.2693193 175.066405,71.1917205 C175.377465,71.1141216 175.569667,70.8023924 175.499285,70.4896424 Z" id="icon-action"></path>
        </g>
    </g>
</svg>