<?xml version="1.0" encoding="UTF-8"?>
<svg width="24px" height="18px" viewBox="0 0 24 18" version="1.1" xmlns="http://www.w3.org/2000/svg" xmlns:xlink="http://www.w3.org/1999/xlink">
    <title>icon-custom</title>
    <g id="card-type-icons" stroke="none" stroke-width="1" fill="none" fill-rule="evenodd">
        <g id="Artboard" transform="translate(-160.000000, -110.000000)" fill="currentColor" fill-rule="nonzero">
            <path d="M182.5,110 C183.32,110 184,110.67 184,111.5 L184,111.5 L184,126.5 C184,127.32 183.32,128 182.5,128 L182.5,128 L161.5,128 C160.67,128 160,127.32 160,126.5 L160,126.5 L160,111.5 C160,110.67 160.67,110 161.5,110 L161.5,110 Z M171.999339,112 C171.640834,112 171.311935,112.198926 171.145471,112.51644 L169.324585,116.057894 C169.224628,116.252443 169.024223,116.374712 168.805498,116.374595 L165.958687,116.374595 C165.569585,116.371772 165.217893,116.605925 165.070408,116.966004 C164.924352,117.31596 165.010038,117.719778 165.285624,117.980265 L167.741662,120.379728 C167.902784,120.537137 167.958862,120.773255 167.885724,120.986301 L166.596756,124.758719 C166.469034,125.118537 166.578605,125.519833 166.871463,125.764814 C167.170596,126.023543 167.597349,126.073477 167.948131,125.890795 L171.732214,123.939262 C171.899685,123.852318 172.098993,123.852318 172.266465,123.939262 L176.050548,125.890795 C176.401299,126.073644 176.828151,126.023699 177.127215,125.764814 C177.419329,125.520116 177.52883,125.119777 177.401923,124.760469 L176.111205,120.986301 C176.038212,120.773144 176.094521,120.537008 176.255849,120.379728 L178.713054,117.980848 C178.988587,117.720088 179.074249,117.316154 178.928271,116.966004 C178.780915,116.605819 178.429142,116.371611 178.039991,116.374595 L175.19318,116.374595 C174.974455,116.374712 174.774051,116.252443 174.674093,116.057894 L172.853207,112.51644 C172.686743,112.198926 172.357844,112 171.999339,112 Z" id="icon-custom"></path>
        </g>
    </g>
</svg>