<?xml version="1.0" encoding="UTF-8"?>
<svg width="24px" height="18px" viewBox="0 0 24 18" version="1.1" xmlns="http://www.w3.org/2000/svg" xmlns:xlink="http://www.w3.org/1999/xlink">
    <title>icon-config2</title>
    <g id="card-type-icons" stroke="none" stroke-width="1" fill="none" fill-rule="evenodd">
        <g id="Artboard" transform="translate(-179.000000, -87.000000)" fill="currentColor" fill-rule="nonzero">
            <path d="M201.5,87 C202.32,87 203,87.67 203,88.5 L203,88.5 L203,103.5 C203,104.32 202.32,105 201.5,105 L201.5,105 L180.5,105 C179.67,105 179,104.32 179,103.5 L179,103.5 L179,88.5 C179,87.67 179.67,87 180.5,87 L180.5,87 Z M191,89 C190.413971,89 189.891271,89.3685809 189.694459,89.9205996 L189.431951,90.6591583 C189.355875,90.8728609 189.192878,91.0443599 188.983323,91.1311879 C188.773767,91.2180159 188.537248,91.2120538 188.332333,91.1147779 L187.624727,90.7781678 C187.095244,90.5270119 186.465032,90.6360103 186.05065,91.0504122 C185.636268,91.4648141 185.527275,92.0950568 185.778419,92.6245647 L186.114429,93.3322044 C186.211927,93.5371126 186.218077,93.773731 186.131356,93.983428 C186.044635,94.193125 185.873158,94.3562777 185.659415,94.4324586 L184.920892,94.6949795 C184.368757,94.8915064 184,95.4141992 184,96.0002917 C184,96.5863842 184.368757,97.109077 184.920892,97.3056039 L185.659415,97.5681248 C185.87312,97.6441737 186.044597,97.8072155 186.131327,98.0168223 C186.218057,98.226429 186.211917,98.4629712 186.114429,98.6677956 L185.778419,99.3754353 C185.527275,99.9049432 185.636268,100.535186 186.05065,100.949588 C186.465032,101.36399 187.095244,101.472988 187.624727,101.221832 L188.332333,100.885805 C188.537199,100.788147 188.773876,100.78199 188.983543,100.868864 C189.193209,100.955738 189.35618,101.127487 189.431951,101.341425 L189.694459,102.0794 C189.891271,102.631419 190.413971,103 191,103 C191.586029,103 192.108729,102.631419 192.305541,102.0794 L192.568049,101.340842 C192.644095,101.127126 192.807129,100.955641 193.016725,100.868907 C193.226322,100.782173 193.462853,100.788313 193.667667,100.885805 L194.375273,101.221832 C194.904756,101.472988 195.534968,101.36399 195.94935,100.949588 C196.363732,100.535186 196.472725,99.9049432 196.221581,99.3754353 L195.885571,98.6677956 C195.788083,98.4629712 195.781943,98.226429 195.868673,98.0168223 C195.955403,97.8072155 196.12688,97.6441737 196.340585,97.5681248 L197.079108,97.3050205 C197.631243,97.1084936 198,96.5858008 198,95.9997083 C198,95.4136158 197.631243,94.890923 197.079108,94.6943961 L196.340585,94.4324586 C196.126724,94.3564299 195.955122,94.1932904 195.868378,93.9835378 C195.796091,93.808744 195.788382,93.6152387 195.844354,93.4370253 L195.885571,93.3322044 L196.221581,92.6245647 C196.472725,92.0950568 196.363732,91.4648141 195.94935,91.0504122 C195.534968,90.6360103 194.904756,90.5270119 194.375273,90.7781678 L193.667667,91.1147779 C193.462676,91.2120285 193.226089,91.2179097 193.016519,91.1309646 C192.80695,91.0440195 192.644003,90.8723824 192.568049,90.658575 L192.305541,89.9205996 C192.108729,89.3685809 191.586029,89 191,89 Z M193.590082,94.9259979 C194.180896,96.3566901 193.502469,97.9956917 192.073367,98.5902061 C191.733166,98.7301406 191.367776,98.7984558 191,98.7908887 C189.874823,98.774565 188.86253,98.1034701 188.409335,97.0734187 C187.818521,95.6427265 188.496948,94.003725 189.926049,93.4092105 C191.356613,92.8370747 192.982417,93.5101037 193.590082,94.9259979 Z" id="icon-config2"></path>
        </g>
    </g>
</svg>