<?xml version="1.0" encoding="UTF-8"?>
<svg width="24px" height="23px" viewBox="0 0 24 23" version="1.1" xmlns="http://www.w3.org/2000/svg" xmlns:xlink="http://www.w3.org/1999/xlink">
    <title>icon-card-selector</title>
    <g id="card-type-icons" stroke="none" stroke-width="1" fill="none" fill-rule="evenodd">
        <path d="M22,6.5 C23.1045695,6.5 24,7.3954305 24,8.5 L24,8.5 L24,20.5 C24,21.6045695 23.1045695,22.5 22,22.5 L22,22.5 L2,22.5 C0.8954305,22.5 0,21.6045695 0,20.5 L0,20.5 L0,8.5 C0,7.3954305 0.8954305,6.5 2,6.5 L2,6.5 Z M13.5,17.25 L4.5,17.25 C4.08578644,17.25 3.75,17.5857864 3.75,18 C3.75,18.4142136 4.08578644,18.75 4.5,18.75 L4.5,18.75 L13.5,18.75 C13.9142136,18.75 14.25,18.4142136 14.25,18 C14.25,17.5857864 13.9142136,17.25 13.5,17.25 L13.5,17.25 Z M16.75,13.25 L4.75,13.25 C4.19771525,13.25 3.75,13.5857864 3.75,14 C3.75,14.4142136 4.19771525,14.75 4.75,14.75 L4.75,14.75 L16.75,14.75 C17.3022847,14.75 17.75,14.4142136 17.75,14 C17.75,13.5857864 17.3022847,13.25 16.75,13.25 L16.75,13.25 Z M6.5,9.75 L4.5,9.75 C4.08578644,9.75 3.75,10.0857864 3.75,10.5 C3.75,10.9142136 4.08578644,11.25 4.5,11.25 L4.5,11.25 L6.5,11.25 C6.91421356,11.25 7.25,10.9142136 7.25,10.5 C7.25,10.0857864 6.91421356,9.75 6.5,9.75 L6.5,9.75 Z M20.5,3 C21.0522847,3 21.5,3.44771525 21.5,4 C21.5,4.55228475 21.0522847,5 20.5,5 L20.5,5 L3.5,5 C2.94771525,5 2.5,4.55228475 2.5,4 C2.5,3.44771525 2.94771525,3 3.5,3 L3.5,3 Z M18.5,0 C19.0522847,0 19.5,0.44771525 19.5,1 C19.5,1.55228475 19.0522847,2 18.5,2 L18.5,2 L5.5,2 C4.94771525,2 4.5,1.55228475 4.5,1 C4.5,0.44771525 4.94771525,0 5.5,0 L5.5,0 Z" id="icon-card-selector" fill="currentColor" fill-rule="nonzero"></path>
    </g>
</svg>