<?xml version="1.0" encoding="UTF-8"?>
<svg width="24px" height="18px" viewBox="0 0 24 18" version="1.1" xmlns="http://www.w3.org/2000/svg" xmlns:xlink="http://www.w3.org/1999/xlink">
    <title>Combined Shape</title>
    <g id="Page-1" stroke="none" stroke-width="1" fill="none" fill-rule="evenodd">
        <path d="M22.5,0 C23.3284271,0 24,0.671572875 24,1.5 L24,1.5 L24,16.5 C24,17.3284271 23.3284271,18 22.5,18 L22.5,18 L1.5,18 C0.671572875,18 0,17.3284271 0,16.5 L0,16.5 L0,1.5 C0,0.671572875 0.671572875,0 1.5,0 L1.5,0 Z M8.09583333,14 L2,14 L2,16 L8.09583333,16 L8.09583333,14 Z M15.0958333,14 L9,14 L9,16 L15.0958333,16 L15.0958333,14 Z M22,14 L15.9041667,14 L15.9041667,16 L22,16 L22,14 Z M8.09583333,11 L2,11 L2,13 L8.09583333,13 L8.09583333,11 Z M15.0958333,11 L9,11 L9,13 L15.0958333,13 L15.0958333,11 Z M22,11 L15.9041667,11 L15.9041667,13 L22,13 L22,11 Z M8.09583333,8 L2,8 L2,10 L8.09583333,10 L8.09583333,8 Z M15.0958333,8 L9,8 L9,10 L15.0958333,10 L15.0958333,8 Z M22,8 L15.9041667,8 L15.9041667,10 L22,10 L22,8 Z M7.09583333,2 L3,2 C2.44771525,2 2,2.44771525 2,3 L2,3 L2,6 C2,6.55228475 2.44771525,7 3,7 L3,7 L7.09583333,7 C7.64811808,7 8.09583333,6.55228475 8.09583333,6 L8.09583333,6 L8.09583333,3 C8.09583333,2.44771525 7.64811808,2 7.09583333,2 L7.09583333,2 Z M14.0958333,2 L10,2 C9.44771525,2 9,2.44771525 9,3 L9,3 L9,6 C9,6.55228475 9.44771525,7 10,7 L10,7 L14.0958333,7 C14.6481181,7 15.0958333,6.55228475 15.0958333,6 L15.0958333,6 L15.0958333,3 C15.0958333,2.44771525 14.6481181,2 14.0958333,2 L14.0958333,2 Z M21,2 L16.9041667,2 C16.3518819,2 15.9041667,2.44771525 15.9041667,3 L15.9041667,3 L15.9041667,6 C15.9041667,6.55228475 16.3518819,7 16.9041667,7 L16.9041667,7 L21,7 C21.5522847,7 22,6.55228475 22,6 L22,6 L22,3 C22,2.44771525 21.5522847,2 21,2 L21,2 Z" id="Combined-Shape" fill="currentColor" fill-rule="nonzero"></path>
    </g>
</svg>