<?xml version="1.0" encoding="UTF-8"?>
<svg width="24px" height="18px" viewBox="0 0 24 18" version="1.1" xmlns="http://www.w3.org/2000/svg" xmlns:xlink="http://www.w3.org/1999/xlink">
    <title>icon-summaryDetails</title>
    <g id="Page-1" stroke="none" stroke-width="1" fill="none" fill-rule="evenodd">
        <path d="M22.5,0 C23.32,0 24,0.67 24,1.5 L24,1.5 L24,16.5 C24,17.32 23.32,18 22.5,18 L22.5,18 L1.5,18 C0.67,18 0,17.32 0,16.5 L0,16.5 L0,1.5 C0,0.67 0.67,0 1.5,0 L1.5,0 Z M6.5,4 C4.15151515,4 4.00918274,5.39629313 4.00055653,6.43475078 L4,6.63080324 L4,6.63080324 C4,7.97515528 4.624,8.69944205 5,9.01315928 L5,9.29213601 C3.09,9.52163386 2.127,11.0070534 2.084,11.0754816 C2.029,11.1628592 2,11.2639225 2,11.368144 L2,13.4736288 C2,13.7641857 2.224,14 2.5,14 L10.5,14 C10.776,14 11,13.7641857 11,13.4736288 L11,11.368144 C11,11.2639225 10.971,11.1628592 10.916,11.0765344 C10.873,11.0081061 9.91,9.52163386 8,9.29318876 L8,9.01421202 C8.376,8.70049479 9,7.97620802 9,6.63185598 C9,5.58332456 9,4 6.5,4 Z M21,12 L13,12 L13,13 L21,13 L21,12 Z M21,10 L13,10 L13,11 L21,11 L21,10 Z M21,8 L13,8 L13,9 L21,9 L21,8 Z M17,6 L13,6 L13,7 L17,7 L17,6 Z" id="icon-summaryDetails" fill="currentColor" fill-rule="nonzero"></path>
    </g>
</svg>